<?xml version="1.0" encoding="utf-8"?>
<!-- Generator: Adobe Illustrator 25.2.3, SVG Export Plug-In . SVG Version: 6.00 Build 0)  -->
<svg version="1.1" id="Capa_1" xmlns="http://www.w3.org/2000/svg" xmlns:xlink="http://www.w3.org/1999/xlink" x="0px" y="0px"
	 viewBox="0 0 342.1 107.4" style="enable-background:new 0 0 342.1 107.4;" xml:space="preserve">
<style type="text/css">
	.st0{enable-background:new    ;}
	.st1{fill:#006633;}
</style>
<metadata><?xpacket begin="﻿" id="W5M0MpCehiHzreSzNTczkc9d"?>
<x:xmpmeta xmlns:x="adobe:ns:meta/" x:xmptk="Adobe XMP Core 6.0-c004 79.164570, 2020/11/18-15:51:46        ">
   <rdf:RDF xmlns:rdf="http://www.w3.org/1999/02/22-rdf-syntax-ns#">
      <rdf:Description rdf:about=""
            xmlns:xmp="http://ns.adobe.com/xap/1.0/"
            xmlns:xmpGImg="http://ns.adobe.com/xap/1.0/g/img/"
            xmlns:xmpTPg="http://ns.adobe.com/xap/1.0/t/pg/"
            xmlns:stDim="http://ns.adobe.com/xap/1.0/sType/Dimensions#"
            xmlns:xmpG="http://ns.adobe.com/xap/1.0/g/"
            xmlns:dc="http://purl.org/dc/elements/1.1/">
         <xmp:CreatorTool>Adobe Illustrator 25.2 (Windows)</xmp:CreatorTool>
         <xmp:CreateDate>2025-08-27T17:24:57-03:00</xmp:CreateDate>
         <xmp:Thumbnails>
            <rdf:Alt>
               <rdf:li rdf:parseType="Resource">
                  <xmpGImg:width>256</xmpGImg:width>
                  <xmpGImg:height>80</xmpGImg:height>
                  <xmpGImg:format>JPEG</xmpGImg:format>
                  <xmpGImg:image>/9j/4AAQSkZJRgABAgEAlgCWAAD/7QAsUGhvdG9zaG9wIDMuMAA4QklNA+0AAAAAABAAlgAAAAEA&#xA;AQCWAAAAAQAB/+4ADkFkb2JlAGTAAAAAAf/bAIQABgQEBAUEBgUFBgkGBQYJCwgGBggLDAoKCwoK&#xA;DBAMDAwMDAwQDA4PEA8ODBMTFBQTExwbGxscHx8fHx8fHx8fHwEHBwcNDA0YEBAYGhURFRofHx8f&#xA;Hx8fHx8fHx8fHx8fHx8fHx8fHx8fHx8fHx8fHx8fHx8fHx8fHx8fHx8fHx8f/8AAEQgAUAEAAwER&#xA;AAIRAQMRAf/EAaIAAAAHAQEBAQEAAAAAAAAAAAQFAwIGAQAHCAkKCwEAAgIDAQEBAQEAAAAAAAAA&#xA;AQACAwQFBgcICQoLEAACAQMDAgQCBgcDBAIGAnMBAgMRBAAFIRIxQVEGE2EicYEUMpGhBxWxQiPB&#xA;UtHhMxZi8CRygvElQzRTkqKyY3PCNUQnk6OzNhdUZHTD0uIIJoMJChgZhJRFRqS0VtNVKBry4/PE&#xA;1OT0ZXWFlaW1xdXl9WZ2hpamtsbW5vY3R1dnd4eXp7fH1+f3OEhYaHiImKi4yNjo+Ck5SVlpeYmZ&#xA;qbnJ2en5KjpKWmp6ipqqusra6voRAAICAQIDBQUEBQYECAMDbQEAAhEDBCESMUEFURNhIgZxgZEy&#xA;obHwFMHR4SNCFVJicvEzJDRDghaSUyWiY7LCB3PSNeJEgxdUkwgJChgZJjZFGidkdFU38qOzwygp&#xA;0+PzhJSktMTU5PRldYWVpbXF1eX1RlZmdoaWprbG1ub2R1dnd4eXp7fH1+f3OEhYaHiImKi4yNjo&#xA;+DlJWWl5iZmpucnZ6fkqOkpaanqKmqq6ytrq+v/aAAwDAQACEQMRAD8A5WqliFUVJ2AHUnMN4tX/&#xA;AEff/wDLNL/wDf0xpPCe536Pv/8Alml/4Bv6Y0vCe536Pv8A/lml/wCAb+mNLwnud+j7/wD5Zpf+&#xA;Ab+mNLwnud+j7/8A5Zpf+Ab+mNLwnud+j7//AJZpf+Ab+mNLwnud+j7/AP5Zpf8AgG/pjS8J7nfo&#xA;+/8A+WaX/gG/pjS8J7nfo+//AOWaX/gG/pjS8J7nfo+//wCWaX/gG/pjS8J7nfo+/wD+WaX/AIBv&#xA;6Y0vCe536Pv/APlml/4Bv6Y0vCe536Pv/wDlml/4Bv6Y0vCe536Pv/8Alml/4Bv6Y0vCe536Pv8A&#xA;/lml/wCAb+mNLwnud+j7/wD5Zpf+Ab+mNLwnud+j7/8A5Zpf+Ab+mNLwnud+j7//AJZpf+Ab+mNL&#xA;wnud+j7/AP5Zpf8AgG/pjS8J7nfo+/8A+WaX/gG/pjS8J7nfo+//AOWaX/gG/pjS8J7nfo+//wCW&#xA;aX/gG/pjS8J7nfo+/wD+WaX/AIBv6Y0vCe536Pv/APlml/4Bv6Y0vCe536Pv/wDlml/4Bv6Y0vCe&#xA;536Pv/8Alml/4Bv6Y0vCe536Pv8A/lml/wCAb+mNLwnud+j7/wD5Zpf+Ab+mNLwnud+j7/8A5Zpf&#xA;+Ab+mNLwnud+j7//AJZpf+Ab+mNLwnuUGUqSrChGxB6g4oTfyd/yl+h/9tC1/wCTy4Y82zB9cfeH&#xA;3NmW9g7FXYq7FXYq7FXYq7FXYq7FXYq7FXYq7FXYq7FXYq7FXYq7FXYq7FXYq7FXYq7FXYq7FXYq&#xA;7FXwz5x/5S/XP+2hdf8AJ5sxJc3j8/1y95d5O/5S/Q/+2ha/8nlxjzXB9cfeH3NmW9g7FXYq+VLr&#xA;/nIb8yIb+6WK6t3gEriFJLeM8UDGgqoWu2Y/iF5w9pZQTv8AY+oNInup9Jsp7sAXcsET3AUEKJGQ&#xA;F6A7gcsvD0MCTEE80XhZPLPz887eZvKmj6VPoF59Tmubh45n9OKWqqlQKSq4G/hleSRHJ13aOeeO&#xA;IMTW6QfkN+ZPnjzV5mvrLXdQW8s4LJpkT0YYmEvqxqprEibcS3XI45Endo7O1WTJMiRsU9yy53Ds&#xA;VdirsVdir56/Of8ANjz15d89XGlaHqv1WyhghYw+hbyUd05H4pY3bcEd8onMguj12syQycMTQ+D0&#xA;P8jfNXmHzP5Nl1LXboXd2L2WGOURpF+7SOMgFY1Ra8mY9Msxkkbud2fmlkx3I2behZNznYq7FXmf&#xA;59ec/MXlXyzYXWg3X1O6uL0RSTenHLWP0pGK8ZVdd2ANaV2yvJIgbOv7RzzxwBiaNsR/Iz8zfPnm&#xA;nzhNp2taj9csorOS5ZPRt4iGV40U1jRD/uzI45klxuz9XkyZKkbFeT3rLncvGde/5yS07R/MepaP&#xA;Locsyafcy2puY7hauYWKM3BoxT4h05ZUctF1WTtQRmY8PIvVPLWtprugWGsJA9tHfwpOkMhBZVcV&#xA;WpG3TfLAbDscWTjiJd6ZYWx2KuxV2KuxV2KuxV8M+cf+Uv1z/toXX/J5sxJc3j8/1y95d5O/5S/Q&#xA;/wDtoWv/ACeXGPNcH1x94fc2Zb2DsVU7iX0beWanL00Z+PSvEVpigmg+CbeL1p44gaGRlSvhyNMw&#xA;3jALL75RFRQijiqgBQOgAzMe0SO888+U7PXrXQJ9ThXWLx/ThtFJZg1CQHKghC3RQxFT0wcQummW&#xA;ogJCJPqKVfmTbflrc2llF55eJbf1HayEss0NXAAehhZCdiOuCVdWvVDEQPEQX5b6b+UNtqF3J5HM&#xA;DXpiC3ZimuJmERao/vneg5DtgiI9GGljgBPh8/imOs/m3+XOjllu9dtnlWoMVsTcsCNqEQiSh+eE&#xA;zAZz1uKPOQ+9lF5e2djayXd7PHa2sI5S3EzrHGg6VZ2IA+nJOTKQAs8kns/P/ki9vo7Cz12xubyZ&#xA;uEUMM8cjO3gvEmv0ZHiDVHU4yaEhaZ6vqdppWlXmp3hK2tjDJcTlRVuESl2oO5oNhhJpsnMRiSeQ&#xA;Y1oH5u/l5rs8VtYaxGLudljitp1eCRnc0VF9RVDEk7cScAmC4+PW4pmgd0g89aZ+RVx5jnk82vbr&#xA;rnCMTiS4uom4hB6dVidV+zTtkZCN7tOohpjP1/V7yy3yFbeTLby8kfk8odF9SQoY5JJV9Qn4/ilL&#xA;N198lGq2cnTjGI/u/pTrUNR0/TrV7vULmK0tY/7yed1jQfNmIGSJbZSERZNBiEn52flbHN6Ta/EW&#xA;33WOdl2/y1jK/jkPEDjHX4f5zKNG8waHrdr9a0i+gv4BszwOr8Sd6MAaqfY5IG3Ix5IzFxNpB+ZF&#xA;r+XdzplrH54eJbETcrUSyywgzBCNjCyMfhJ9sEq6tOqGIgeJySn8udL/ACbttYuJ/JDQtqf1dkuD&#xA;FPczEQM6E1WZ3X7arvSuCIj0atLDAJXj515sm1Pz95J0tmS/12xglXZoTPGZB/sFJb8MkZByJ6nH&#xA;HnIPirVr03+qXl83W6nknNfGRy38cxC8nOVyJ731ZoX5y/lPZ6VZabDrqKtnbxQKGt7pFpEgQULx&#xA;DwzIE4vR49dgEQOLl5F6DZ3lte2cF5ayCa1uY0mglX7LxyKGVh7EGuWOdGQIscko8xeevKPlshdb&#xA;1WCzkYVWFmLSkeIiQM9PemAyAasuohj+o0lGnfnN+WOoziC31+BZG2H1hJbZf+CnSNfxyImGqOuw&#xA;yO0v0MzR0dFdGDIwDKymoIO4IIyblt4q7FXYq+GfOP8Ayl+uf9tC6/5PNmJLm8fn+uXvLvJ3/KX6&#xA;H/20LX/k8uMea4Prj7w+5sy3sHYqgddkePRNQkQ0dLaZlPgRGSOuAsMh9J9z4a0meG31WyuJ/wC5&#xA;hnikl2r8KuC23yGYgeQgakC9S/MH/nIXzDrbS2Pl3no+lmq+uppdyj3cf3XyTf8AysslkJ5Ox1Pa&#xA;Up7Q9I+15/5Z8rebvMF+raBY3F3cxuG+sx1VY3rUM0zFUQ13qWyABPJwcWGcz6QS9V/5yHn1o+WP&#xA;JsevRpHrTLdG9WJg8fqRrCrEEU+1yBoOnTLMnIW7LtMy4IcX1b/oVf8AnFYD9I+YjTcQ2wB/2UmO&#xA;FPZHOXweN+ZrQ2XmTVrMjiba8uISu+3pystN9+2VHm6rLGpkeZfW/nW4tbz8odUuZ2pFPozTIa1+&#xA;NoOUe561fjmTL6Xps5BwEn+a+Xfyvu1tPzE8uzNQKb+CMk9B6riOv/DZjw5vPaSVZY+99Mfnpqo0&#xA;78sdXIbjLdiO0i7V9WRQ4/5FhsyMh2d/2hPhwnz2fP8A+RGjnUvzN0qq8orL1LyXvT0kPA/8jGXK&#xA;cY3dL2fDizDy3X/n9KX/ADV1hSKCJbVB8jaxN/xtjk+pe0T++Pw+57X+RuoWunfk7b6hdv6drafX&#xA;J55PBI5XZj9wy3GfS7fs+QjgBPIW+evP/n/W/OuuPeXjstqrFdP09SSkMZOwA/ac/tN3PtQCiUrL&#xA;o9TqZZZWeXQJlb/kf+Z8+mi/TRXWMrzWF5IknK/8YmcOD/kkV9sPhlsGgzEXwpL5M1bzZoXmi3k0&#xA;BJv0wknpGyVGYykGjQyRDcjbcduuxGCJIOzTgnOE/T9T2b/nJae5uPKPlqe6tzaXUszPPallcxO0&#xA;ILJyX4W4naoy3LyDte1STCJOyS/84tRIfMetSEVZbNFHyaUE/wDERgxc2rsgeuXuYBrf5a+b7XU9&#xA;YW30e7bTtNmuA140TJD6MDN8YkYKhXgtdjkDEuFk0swTQNC2Nabp91qOoWun2iepd3k0dvbpULyk&#xA;lYIgqaAVY5EBx4xMiAOZZ63/ADj7+aaqSNMjYjooubep+9wMn4Zc3+Tc3d9oe1/mn53k/L/yHYWN&#xA;gwXWbiJLOxqAfTWGNVkmoag8BQD3I6jLZy4Q7bV6jwcYA+rkHzHpul+YvNOtfV7KKfVNWuiZHJJe&#xA;Rj+08judh4sxzHAJefjCeSVDeRTvzJ+Unn/y5YNqGqaWy2KU9WeGSOZUqafH6bMVHuRTJGBDbl0W&#xA;XGLI2ZF+Sf5p6h5c1y20XUJ2l8v30ghMbmotpJDRZUr9leR+MdO/UYcc6b9BqzjkIn6T9j6szJek&#xA;dirsVfDPnH/lL9c/7aF1/wAnmzElzePz/XL3l3k7/lL9D/7aFr/yeXGPNcH1x94fc2Zb2DsVS/zD&#xA;/wAcDU/+YSf/AJNtgPJhl+k+58I5hvGvUvyS8l+QPMF+X8x6nG16j0tdDZjD6vSjNIePqf6iGvjt&#xA;tluOIPN2OgwYpn1nfufU1lZWdjax2llBHbWsI4xQRKERR4BVoBmQ9HGIAocng3/OVv8A0y//AEf/&#xA;APYtlObo6btj+H4/oQ//ADit/wAdDzF/xitf+JSYMLHsjnL4PP8A86dKbTfzN1yMiiXEwukPYi4R&#xA;ZCf+CYjITG7ha6HDmk9N85ebkP8Azjjoqo/77UorbTdj8X+ikiQ/9O1D88skfQ7DPm/wSPnQ+X9j&#xA;wOwvJLK/tryL+9tpUmShp8UbBhv9GUh0sZUQXvf/ADk35lgn0by/pls/JL1jqLU/32qcIj/svVb7&#xA;suyl3PauUGMQOu6z/nFrQDTWvMEi7HhYW7/dLMP+TeOIdV7Ix/VL4PP/AM+v/Jsa7/0a/wDUHDkM&#xA;n1OF2j/fy+H3BnFndS23/OLVwYuQaWVoiy9le/AavsVqv05L+By4mtH+O9g35FabZah+Z2kx3YV0&#xA;g9W4jjbo0sUTMn0qw5/RkcY3cPs+AlmFvr/Ml6hjVo/kCy853sNubODzZeJHJdqaLcSIRReJbrUL&#xA;VlT5nI7X5uPHwhkNVxl5d/zlSx/R3l1a/CZrkkdqhY/65Xmdf2vyj8Um/wCcWf8Ajv65/wAwkX/J&#xA;zBi5tPZH1S9z3D8wv+UB8y/9sq+/6hny2XIu31P91L+qfufI35ZxpJ+YfltWFQNRtm+lZVYfiMxo&#xA;cw8zpR+9j7w+1y6KyqWAZtlBO5oK7ZlvWvm3/nKSSY+aNHjJPorYsyDtyaZg1PoVcoy83Q9rn1j3&#xA;Mo/5xcsNPXyxq1+qL+kZL30JX/aEKRRvGPYFnf8AzGSxcnI7JiOAnrb2ieCGeGSCZBJDKpSWNhVW&#xA;VhRlIPUEZa7Ui9nwbqUdvDqV1FbGtvHNIsDVrVFYhTX5Zhl42QAJp906NLLNpFjNMSZpLeJ5CepZ&#xA;kBNfpzLD2MDcQjMLJ2Kvhnzj/wApfrn/AG0Lr/k82Ykubx+f65e8u8nf8pfof/bQtf8Ak8uMea4P&#xA;rj7w+5sy3sHYqgNfVm0LUlUFma1mCqNySY2wHkwyfSfc+Eok5yIhYJyIHJtgKmlTmI8cGS+cPy48&#xA;4eUZiNXsWW2rSO/hrJbt4UkA+EnsGofbDKJDkZ9LkxfUPimvlT87PP8A5cVIYr79IWSbC0vgZlA8&#xA;FeolX2AanthGQhsw6/Lj62PNP/zp81Xvmvyr5N126sP0cbk6iI4RJ6gZEa3X1ASqEBipoDkpmwC3&#xA;a/MckISIrn+hO/8AnFZ0Gp+YYyfjaG3YD2V5Af8AiQw4W7sjnL4K3/OUHlaX1tM8zwR1jKfUL1gP&#xA;skEyQsfnycV+Qw5R1T2th5THueJXGt6ncaPZ6RNMW0+wkmltYeytPx5/P7G3hv45TbqTkJiI9Amn&#xA;mvyRqvlvT9Cvb1SE1q0+tICKcG5n92a9xG0bH/WwmNNmbTyxiJP8QS3Vdb1bWpbP67IbiSztobC0&#xA;UDcQwikaCnXrgJtrnklOr6Cn2J+WPlX/AAv5I0zSpF43Yj9a9/4zzfG4P+rXh9GZUBQeo0mHw8Yj&#xA;1fNX59f+TY13/o1/6g4coyfU6HtH+/l8PuD1v8svLaeZfyBbQ2YI16LpYnb7KyrcM8TGnYSKpyyA&#xA;uNOz0mLxNNw99/e+eAde8reYa/vNP1nS5vk8ciH6QQfuI9jlG4Lo/Vjl3SD08/8AOT3nP9H+h+j7&#xA;EXvHibzjJStKcvT505d+tPbLPFLsP5WyVyFvM1k8xeavMyuHkvtd1OccXGztKTsRSgUKB8lA8BkN&#xA;yXX3PJPvkXr35+6JfaV5G8oWd/fSaheWbTRXN3Mxd5JHRWY8m3oCKCu9KZZkFAO07RxmOOAJshCf&#xA;84tysPNOsRbcXsQ5PeqzKB/xLHFzYdkH1n3PoPzHp7al5e1TTkALXtpPbqD0rLEyD/iWXEbO7yx4&#xA;okd4fEGk6le6LrNpqNuOF7p06Txq4NBJE4biy7GlRQjMQGnkYSMJAjmGYXX5z+br/wA6aZ5mvpF/&#xA;3GSVgsIAUhWJxxmRQSxrIlQWYk5PjN25R10zkEz06PXf+cg/KU/mPylYeZNMiaWXTFM0sXEhzaTq&#xA;rMxXrWMqDTsOWWZBYt2faWHxICY6fc8P/L78yNf8j6hLc6Zwmt7oKt3ZzAmOQJXiaqQVZeRoR+OV&#xA;RkQ6jTaqWE2GbeZ/+clPM2raVNYadYRaU1wpjlulkaWUK2x9OoQKSO9D7UOSOUly8vak5RoCmA/l&#xA;/wCT73zb5ps9Jt42aBnD30o6RW6keo5PbbZfE0GQjGy4emwHJMRD7aVVVQqgKqiiqNgAOwzLetbx&#xA;V2Kvhnzj/wApfrn/AG0Lr/k82Ykubx+f65e8u8nf8pfof/bQtf8Ak8uMea4Prj7w+5sy3sHYqsmi&#xA;WaGSJqhZFKMR1owptigi3kf/AEK/5B/5b9V/5HW3/ZPlXhB1n8k4u+X2fqeuyxRTRtFKiyRuOLo4&#xA;DKQexB65a7Mi3nPmf8gPy+1t2nt7Z9IumqS9iQkZPvCwaMD/AFAuVnGC4OXs7FPkOE+SaecPym8r&#xA;+adL0rTLt7mzs9GUx2Udm8aUQqqcW9SOWtAgphlAFsz6OGQAGwI9zXkH8pfLnke8urrSbm8nkvI1&#xA;ilF08TqFVuQ4+nHFvjGAC6bRwwkmJO7KNZ0bTda0u40vU4FuLG6ThNE3cdQQRuCDuCOhyRFuROAm&#xA;DE8i8z0b/nG3yVp+spfz3Fzf20L84bCf0/TJBqBKVUFwPDavfbIDEHX4+y8cZWbPkzzzj5K0Hzdo&#xA;50vWImaEMJIZYjwlicAgNG1CK0NNwR7ZOUQXNz4I5Y8MmHeTfyA8o+W9Zj1Z559TurdudmlwEEcb&#xA;D7L8VHxOvYk0HWlaZCOMBxcHZsMcuLmXp2WOwedecPyK8oeavMFxrmoXV/DeXQjEqW0kKx/ukWNS&#xA;A8MjfZUd8hLGCbcHP2fDJIyJNn8dzKPJXk3TPKGhro2myzzWqSPKHuWRpOUhqd0WMU+jJRjTkYMA&#xA;xR4RyQnnL8tPJ/m9VbWLKt0i8Y76E+nOo7DmPtAV2DAjBKILHPpceX6hu89f/nFvyuZqprF8IK7I&#xA;ViL0/wBbiB/wuQ8IOD/JEO8s+8k/lf5Q8nKz6Talrxxxkv7hhJOy+HKiqo8QiiuTjABzcGkhi+kb&#xA;96/z9+XOieeLO1tdWnuYI7ORpYjatGjFmXieXqJLtjKNrqdLHMAJXsgPIX5QeWvJGpXGoaVc3s81&#xA;zD9XkW6eJ1C8g9QI4ojWq+OCMAGGn0UMRuJLOMm5jzHzf/zj95N8xarNqqS3Gm3dyxkuVtyhid2N&#xA;Wfg6mjN3oad6ZXLGC6/N2bjnLi3BRnlD8i/Inlq7S+SGTUr+IhoZ71lkEbA1DJGqogI7Egkdjhjj&#xA;AZYez8eM3zPm9CIrsemTc55p5q/5x+8ha7dSXkCTaTdSEtIbIqImY9zE6so/2HHKzjBdfm7NxTN/&#xA;SfJIrT/nFzyokwa61a+niHWNBFGT/sir4PCDTHsmHUl6d5V8m+W/KtibPQ7JLWNyDNJu0khHQvI1&#xA;Wb23oO2WCIHJ2OHBDGKiKTrC2uxV2Kvhnzj/AMpfrn/bQuv+TzZiS5vH5/rl7y7yd/yl+h/9tC1/&#xA;5PLjHmuD64+8PubMt7B2KuxV2KuxV2KuxV2KuxV2KuxV2KuxV2KuxV2KuxV2KuxV2KuxV2KuxV2K&#xA;uxV2KuxV2KuxV2Kvhnzj/wApfrn/AG0Lr/k82Ykubx+f65e8pSjujq6MVdSGVlNCCNwQRga0d/iH&#xA;X/8Aq53f/I+T/mrGyz8WXeXf4h1//q53f/I+T/mrGyviy7y7/EOv/wDVzu/+R8n/ADVjZXxZd5d/&#xA;iHX/APq53f8AyPk/5qxsr4su8u/xDr//AFc7v/kfJ/zVjZXxZd5d/iHX/wDq53f/ACPk/wCasbK+&#xA;LLvLv8Q6/wD9XO7/AOR8n/NWNlfFl3l3+Idf/wCrnd/8j5P+asbK+LLvLv8AEOv/APVzu/8AkfJ/&#xA;zVjZXxZd5d/iHX/+rnd/8j5P+asbK+LLvLv8Q6//ANXO7/5Hyf8ANWNlfFl3l3+Idf8A+rnd/wDI&#xA;+T/mrGyviy7y7/EOv/8AVzu/+R8n/NWNlfFl3l3+Idf/AOrnd/8AI+T/AJqxsr4su8u/xDr/AP1c&#xA;7v8A5Hyf81Y2V8WXeXf4h1//AKud3/yPk/5qxsr4su8u/wAQ6/8A9XO7/wCR8n/NWNlfFl3l3+Id&#xA;f/6ud3/yPk/5qxsr4su8u/xDr/8A1c7v/kfJ/wA1Y2V8WXeXf4h1/wD6ud3/AMj5P+asbK+LLvLv&#xA;8Q6//wBXO7/5Hyf81Y2V8WXeXf4h1/8A6ud3/wAj5P8AmrGyviy7y7/EOv8A/Vzu/wDkfJ/zVjZX&#xA;xZd5d/iHX/8Aq53f/I+T/mrGyviy7y7/ABDr/wD1c7v/AJHyf81Y2V8WXeXf4h1//q53f/I+T/mr&#xA;Gyviy7y7/EOv/wDVzu/+R8n/ADVjZXxZd5d/iHX/APq53f8AyPk/5qxsr4su8u/xDr//AFc7v/kf&#xA;J/zVjZXxZd5d/iHX/wDq53f/ACPk/wCasbK+LLvKBd3d2d2LOxLMzGpJO5JJxYP/2Q==</xmpGImg:image>
               </rdf:li>
            </rdf:Alt>
         </xmp:Thumbnails>
         <xmpTPg:MaxPageSize rdf:parseType="Resource">
            <stDim:w>12.068528</stDim:w>
            <stDim:h>3.788833</stDim:h>
            <stDim:unit>Centimeters</stDim:unit>
         </xmpTPg:MaxPageSize>
         <xmpTPg:NPages>1</xmpTPg:NPages>
         <xmpTPg:HasVisibleTransparency>False</xmpTPg:HasVisibleTransparency>
         <xmpTPg:HasVisibleOverprint>False</xmpTPg:HasVisibleOverprint>
         <xmpTPg:PlateNames>
            <rdf:Seq>
               <rdf:li>Cyan</rdf:li>
               <rdf:li>Magenta</rdf:li>
               <rdf:li>Yellow</rdf:li>
               <rdf:li>Black</rdf:li>
            </rdf:Seq>
         </xmpTPg:PlateNames>
         <xmpTPg:SwatchGroups>
            <rdf:Seq>
               <rdf:li rdf:parseType="Resource">
                  <xmpG:groupName>Grupo de muestras por defecto</xmpG:groupName>
                  <xmpG:groupType>0</xmpG:groupType>
               </rdf:li>
            </rdf:Seq>
         </xmpTPg:SwatchGroups>
         <dc:format>image/svg+xml</dc:format>
      </rdf:Description>
   </rdf:RDF>
</x:xmpmeta>
                                                                                                    
                                                                                                    
                                                                                                    
                                                                                                    
                                                                                                    
                                                                                                    
                                                                                                    
                                                                                                    
                                                                                                    
                                                                                                    
                                                                                                    
                                                                                                    
                                                                                                    
                                                                                                    
                                                                                                    
                                                                                                    
                                                                                                    
                                                                                                    
                                                                                                    
                                                                                                    
                           
<?xpacket end="w"?>
	</metadata>
<g class="st0">
	<path class="st1" d="M42.7,78.8c-0.2-2-0.3-4.5-0.4-7.6c-0.1-3.1-0.2-6.4-0.2-10c0-3.2,0-6.5,0.1-9.9s0.2-6.8,0.3-10.1
		c0.1-3.3,0.3-6.4,0.5-9.3c0.2-2.9,0.4-5.4,0.6-7.6l10.7,0.7c-0.6,4.2-1,8.4-1.3,12.7c-0.3,4.3-0.5,8.6-0.6,13.1
		c2.3-1.6,5-3.3,8-5.1c3.1-1.8,6.7-3.8,11-6.1l5.8,9.7c-4.4,1.4-8.3,3-11.7,4.8c-3.4,1.8-6.2,3.6-8.4,5.4c-0.4,0.3-0.7,0.5-0.8,0.6
		c-0.1,0.1-0.2,0.2-0.2,0.2c0,0.2,0.7,0.7,2,1.4c1.8,0.9,3.7,1.9,5.6,2.8c1.9,0.9,4.1,1.8,6.5,2.7c2.4,0.9,5.1,1.9,8.2,2.9l-4.2,9.1
		c-3.7-1.1-7.5-2.5-11.2-4.2C59.4,73.5,56,71.8,53,70c0,1.4,0.1,2.8,0.2,4.2c0.1,1.4,0.2,2.9,0.3,4.3L42.7,78.8z"/>
	<path class="st1" d="M80.7,78.6c-0.1-2.5-0.2-5.3-0.2-8.1c0-2.9-0.1-5.8-0.1-8.7c0-3.8,0-7.5,0.1-11.1c0.1-3.6,0.2-6.9,0.3-9.8
		l10.6-0.1c-0.2,1.9-0.3,4.2-0.3,7c0,2.8-0.1,5.7-0.1,8.7c0,3,0,5.9,0.1,8.9c0,2.9,0.1,5.5,0.2,7.9c0.1,2.4,0.1,4.2,0.2,5.4H80.7z
		 M80.9,34.6c0-0.4,0-0.7,0-1.1c0-0.4,0-0.8,0-1.3c0-1.3,0-2.7,0.1-4.2c0.1-1.5,0.2-2.7,0.2-3.7l10.9,0.2c-0.1,1.4-0.3,3-0.4,4.7
		c-0.1,1.8-0.2,3.6-0.3,5.5H80.9z"/>
	<path class="st1" d="M111,79.4c-3.4,0-6.3-2.6-8.7-7.9c-0.8-1.9-1.5-4-2.2-6.2c-0.6-2.3-1.1-4.5-1.6-6.9c-0.4-2.3-0.8-4.6-1-6.7
		c-0.3-2.2-0.5-4.1-0.6-5.7c-0.1-1.7-0.3-2.9-0.3-3.8l10.1-2.3c0.5,9.3,1.2,16.4,2.2,21.2c1,4.8,1.8,7.3,2.3,7.3
		c0.3,0,0.6-0.6,1.1-1.7c0.4-1.1,0.9-2.7,1.4-4.6c0.5-1.9,1-4,1.5-6.3c0.5-2.3,0.9-4.6,1.3-6.9c-0.5-3-0.8-5.4-1-7.1l10.4-0.4v0.7
		c0,1.7,0.1,3.6,0.4,5.9c0.2,2.3,0.6,4.6,0.9,7s0.8,4.6,1.2,6.7s0.9,3.7,1.3,5c0.4,1.3,0.8,1.9,1,1.9c0.2,0,0.6-0.6,1-1.7
		c0.5-1.1,1-2.6,1.5-4.5c0.6-1.9,1.1-4.1,1.7-6.6c0.6-2.5,1.1-5.1,1.7-7.9c0.5-2.8,1-5.5,1.3-8.3l10.1,2.2
		c-0.7,3.9-1.5,7.8-2.5,11.6c-1,3.8-2,7.4-3,10.6c-1.1,3.3-2.1,6-3.1,8.2c-2.3,4.9-5.1,7.3-8.5,7.3c-1.1,0-2.4-0.3-3.8-1
		c-1.4-0.7-2.7-2.1-3.9-4.2c-0.4-0.8-0.8-1.7-1.2-2.8c-0.4-1.1-0.8-2.3-1.2-3.7c-0.5,1.5-1,2.9-1.5,4.1
		C117.2,76.8,114.4,79.4,111,79.4z"/>
	<path class="st1" d="M152.8,78.6c-0.1-2.5-0.2-5.3-0.2-8.1c0-2.9-0.1-5.8-0.1-8.7c0-3.8,0-7.5,0.1-11.1c0.1-3.6,0.2-6.9,0.3-9.8
		l10.6-0.1c-0.2,1.9-0.3,4.2-0.3,7c0,2.8-0.1,5.7-0.1,8.7c0,3,0,5.9,0.1,8.9c0,2.9,0.1,5.5,0.2,7.9c0.1,2.4,0.1,4.2,0.2,5.4H152.8z
		 M153,34.6c0-0.4,0-0.7,0-1.1c0-0.4,0-0.8,0-1.3c0-1.3,0-2.7,0.1-4.2c0.1-1.5,0.2-2.7,0.2-3.7l10.9,0.2c-0.1,1.4-0.3,3-0.4,4.7
		c-0.1,1.8-0.2,3.6-0.3,5.5H153z"/>
	<path class="st1" d="M187.5,79.3c-3.4,0-6.6-0.7-9.5-2.2s-5.2-3.5-7-6.2c-1.8-2.7-2.6-5.9-2.6-9.6c0-4.2,0.8-7.8,2.5-11
		c1.6-3.2,3.9-5.6,6.9-7.3c3-1.7,6.4-2.6,10.3-2.6c3.8,0,7,0.8,9.6,2.3c2.6,1.5,5,4,7,7.3l-8.5,5.9c-1.1-1.8-2.3-3.2-3.5-4.2
		s-2.8-1.4-4.9-1.4c-2.8,0-5,1-6.8,2.9c-1.7,1.9-2.6,4.5-2.6,7.8c0,1.9,0.5,3.4,1.4,4.6c0.9,1.2,2.1,2.1,3.4,2.6s2.6,0.9,3.8,0.9
		c1.2,0,2.4-0.2,3.6-0.5c1.1-0.3,2.2-1,3.3-2.1c1-1.1,1.9-2.7,2.8-4.9l9.2,4.9c-1.2,2.3-2.6,4.3-4.1,6.3c-1.5,1.9-3.4,3.5-5.6,4.7
		C193.8,78.7,191,79.3,187.5,79.3z"/>
	<path class="st1" d="M209.4,78.6c-0.1-2.5-0.2-5.3-0.2-8.1s-0.1-5.8-0.1-8.7c0-3.8,0-7.5,0.1-11.1c0.1-3.6,0.2-6.9,0.3-9.8
		l10.6-0.1c-0.2,1.9-0.3,4.2-0.3,7c0,2.8-0.1,5.7-0.1,8.7c0,3,0,5.9,0.1,8.9c0,2.9,0.1,5.5,0.2,7.9c0.1,2.4,0.1,4.2,0.2,5.4H209.4z
		 M209.6,34.6c0-0.4,0-0.7,0-1.1c0-0.4,0-0.8,0-1.3c0-1.3,0-2.7,0.1-4.2c0.1-1.5,0.2-2.7,0.2-3.7l10.9,0.2c-0.1,1.4-0.3,3-0.4,4.7
		c-0.1,1.8-0.2,3.6-0.3,5.5H209.6z"/>
	<path class="st1" d="M244.5,79.2c-2.5,0-4.4-0.5-5.8-1.6c-1.4-1-2.5-2.5-3.1-4.3c-0.7-1.8-1.1-4-1.3-6.3s-0.3-4.9-0.3-7.5
		c0-2.7,0.1-5.5,0.3-8.4c-2.7,0.4-5.4,0.8-7.9,1.4l-1.9-9.7c3.4-0.9,7-1.6,10.9-2c0.3-2.1,0.6-4.3,0.9-6.6c0.3-2.3,0.7-4.8,1.1-7.3
		l10.6,0.9c-0.5,2.1-0.9,4.3-1.3,6.4c-0.4,2.1-0.7,4.1-1,6.1c2.3,0,4.5,0.1,6.5,0.2c2,0.1,3.9,0.3,5.6,0.5l-1.2,9.7
		c-1.4-0.2-2.9-0.3-4.5-0.3c-1.5-0.1-3.1-0.1-4.6-0.1c-0.9,0-1.9,0-2.8,0.1c-0.2,3-0.4,5.6-0.5,7.7s-0.1,3.6-0.1,4.5
		c0,2.3,0.1,3.9,0.4,4.9c0.3,1,0.7,1.5,1.3,1.5c0.7,0,1.5-0.2,2.3-0.7c0.9-0.5,1.7-1.1,2.6-1.9c0.8-0.8,1.5-1.7,2.1-2.6l4.7,9.9
		C253.5,77.3,249.1,79.2,244.5,79.2z"/>
	<path class="st1" d="M280.4,79.4c-3.3,0-6.1-0.5-8.6-1.6c-2.4-1.1-4.5-2.5-6.1-4.4c-1.6-1.9-2.8-4-3.6-6.4c-0.8-2.4-1.2-5-1.2-7.6
		c0-2.7,0.5-5.2,1.4-7.5c1-2.3,2.3-4.3,4-6.1c1.7-1.7,3.7-3.1,6-4s4.8-1.4,7.5-1.4c2.8,0,5.4,0.5,7.9,1.5c2.4,1,4.5,2.4,6.3,4.1
		c1.8,1.8,3.2,3.8,4.2,6.2c1,2.4,1.5,5,1.5,7.7c0,6.2-1.7,11-5.1,14.4C291.4,77.7,286.6,79.4,280.4,79.4z M280.3,69.4
		c3,0,5.3-0.8,6.9-2.5c1.6-1.7,2.4-4.1,2.4-7.3c0-2.8-0.9-5.1-2.6-6.8c-1.7-1.7-4-2.6-6.8-2.6c-1.7,0-3.2,0.4-4.6,1.3
		c-1.4,0.9-2.5,2-3.4,3.5c-0.8,1.5-1.3,3.1-1.3,4.8c0,1.6,0.3,3.1,1,4.5c0.6,1.5,1.6,2.7,3,3.6C276.4,69,278.2,69.4,280.3,69.4z"/>
</g>
<path class="st1" d="M0,0v107.4h342.1V0H0z M332.5,97.2H9.6V10.1h323v87.1H332.5z"/>
</svg>
